<svg xmlns="http://www.w3.org/2000/svg" width="12" height="14" viewBox="0 0 12 14">
    <g fill="none" fill-rule="nonzero">
        <path fill="#666" d="M9.75 9.375c-.445 0-.856.156-1.178.417L5.334 7.45a2.51 2.51 0 0 0 0-.9l3.238-2.342a1.876 1.876 0 0 0 3.053-1.458c0-1.034-.84-1.875-1.875-1.875A1.876 1.876 0 0 0 7.948 3.27L4.873 5.497a2.5 2.5 0 1 0 0 3.006l3.075 2.227a1.876 1.876 0 0 0 1.802 2.395c1.034 0 1.875-.84 1.875-1.875 0-1.034-.84-1.875-1.875-1.875zm0-7.438a.813.813 0 1 1 0 1.626.813.813 0 0 1 0-1.626zM2.875 8.375A1.377 1.377 0 0 1 1.5 7c0-.758.617-1.375 1.375-1.375S4.25 6.242 4.25 7s-.617 1.375-1.375 1.375zm6.875 3.688a.813.813 0 1 1 0-1.626.813.813 0 0 1 0 1.626z"/>
        <path d="M-2-1h16v16H-2z"/>
    </g>
</svg>
